# xmcd CD database file
#
# Track frame offsets:
#	150
#	16648
#	32067
#	48850
#	64616
#
# Disc length: 1082 seconds
#
# Revision: 0
# Processed by: cddbd v1.4PL0 Copyright (c) Steve Scherf et al.
# Submitted via: Feurio! 1.66 - http://www.feurio.com
#
DISCID=2f043805
DTITLE=DJ Ötzi - Burger Dance
DYEAR=2003
DGENRE=
TTITLE0=Burger Dance (Single Version)
TTITLE1=Burger Dance (Party Version)
TTITLE2=Burger Dance (Single Version feat. Eric Dikeb)
TTITLE3=Burger Dance (Party Version feat. Eric Dikeb)
TTITLE4=Burger Dance (Karaoke Version)
EXTD=
EXTT0=
EXTT1=
EXTT2=
EXTT3=
EXTT4=
PLAYORDER=
